# AST/ASF file generated using VICON BodyLanguage
# -----------------------------------------------
:version 1.10
:name VICON
:units
  mass 1.0
  length 0.45
  angle deg
:documentation
   .ast/.asf automatically generated from VICON data using
   VICON BodyBuilder and BodyLanguage model FoxedUp or BRILLIANT.MOD
:root
   order TX TY TZ RX RY RZ
   axis XYZ
   position 0 0 0  
   orientation 0 0 0 
:bonedata
  begin
     id 1 
     name lhipjoint
     direction 0.573633 -0.743009 0.344793 
     length 2.46257 
     axis 0 0 0  XYZ
  end
  begin
     id 2 
     name lfemur
     direction 0.34202 -0.939693 0  
     length 7.3842  
     axis 0 0 20  XYZ
    dof rx ry rz
    limits (-160.0 20.0)
           (-70.0 70.0)
           (-60.0 70.0)
  end
  begin
     id 3 
     name ltibia
     direction 0.34202 -0.939693 0   
     length 7.50407   
     axis 0 0 20   XYZ
    dof rx
    limits (-10.0 170.0)
  end
  begin
     id 4 
     name lfoot
     direction 0.110749 -0.304281 0.946123   
     length 1.95925   
     axis -90 7.62852e-016 20   XYZ
    dof rx rz
    limits (-45.0 90.0)
           (-70.0 20.0)
  end
  begin
     id 5 
     name ltoes
     direction 1.53554e-011 -4.21843e-011 1   
     length 0.978318   
     axis -90 7.62852e-016 20   XYZ
    dof rx
    limits (-90.0 20.0)
  end
  begin
     id 6 
     name rhipjoint
     direction -0.488109 -0.791693 0.367385   
     length 2.31113  
     axis 0 0 0  XYZ 
  end
  begin
     id 7 
     name rfemur
     direction -0.34202 -0.939693 0   
     length 7.40965   
     axis 0 0 -20   XYZ
    dof rx ry rz
    limits (-160.0 20.0)
           (-70.0 70.0)
           (-70.0 60.0)
  end
  begin
     id 8 
     name rtibia
     direction -0.34202 -0.939693 0   
     length 7.55548   
     axis 0 0 -20   XYZ
    dof rx
    limits (-10.0 170.0)
 end
 begin
     id 9 
     name rfoot
     direction -0.127594 -0.350561 0.927808   
     length 2.07199  
     axis -90 -7.62852e-016 -20   XYZ
    dof rx rz
    limits (-45.0 90.0)
           (-20.0 70.0)
  end
  begin
     id 10 
     name rtoes
     direction -1.53542e-011 -4.21909e-011 1   
     length 1.02667   
     axis -90 -7.62852e-016 -20   XYZ
    dof rx
    limits (-90.0 20.0)
  end
  begin
     id 11 
     name lowerback
     direction -0.0103342 0.997298 -0.0727278   
     length 2.02836   
     axis 0 0 0   XYZ
    dof rx ry rz
    limits (-20.0 45.0)
           (-30.0 30.0)
           (-30.0 30.0)
  end
  begin
     id 12 
     name upperback
     direction 0.0171146 0.999786 -0.011606   
     length 2.03179   
     axis 0 0 0   XYZ
    dof rx ry rz
    limits (-20.0 45.0)
           (-30.0 30.0)
           (-30.0 30.0)
  end
  begin
     id 13 
     name thorax
     direction 0.0216927 0.999513 0.0224343   
     length 2.03882   
     axis 0 0 0   XYZ
    dof rx ry rz
    limits (-20.0 45.0)
           (-30.0 30.0)
           (-30.0 30.0)
  end
  begin
     id 14 
     name lowerneck
     direction 0.000989287 0.993907 0.110221   
     length 1.75428   
     axis 0 0 0   XYZ
    dof rx ry rz
    limits (-20.0 45.0)
           (-30.0 30.0)
           (-30.0 30.0)
  end
  begin
     id 15 
     name upperneck
     direction -0.0172474 0.994813 -0.100253   
     length 1.77058   
     axis 0 0 0   XYZ
    dof rx ry rz
    limits (-20.0 45.0)
           (-30.0 30.0)
           (-30.0 30.0)
  end
  begin
     id 16
     name head
     direction -0.00486455 0.99894 -0.0457663  
     length 1.77427  
     axis 0 0 0   XYZ
    dof rx ry rz
    limits (-20.0 45.0)
           (-30.0 30.0)
           (-30.0 30.0)
  end
  begin
     id 17 
     name lclavicle
     direction 0.927314 0.333734 -0.169441  
     length 3.97584  
     axis 0 0 0   XYZ
    dof ry rz
    limits (-20.0 10.0)
           (0.0 20.0)
  end
  begin
     id 18 
     name lhumerus
     direction 1 -4.48965e-011 -3.25313e-028   
     length 4.76468   
     axis 180 -30 -90   XYZ
    dof rx ry rz
    limits (-60.0 90.0)
           (-90.0 90.0)
           (-90.0 90.0)
  end
  begin
     id 19
     name lradius
     direction 1 -4.48969e-011 -2.8465e-028   
     length 3.52712   
     axis -180 -30 -90   XYZ
    dof rx
    limits (-10.0 170.0)
  end
  begin
     id 20
     name lwrist
     direction 1 -4.4896e-011 -7.78665e-028   
     length 1.76356   
     axis 1.91374e-015 90 90   XYZ
    dof ry
    limits (-180.0 0.0)
 end
  begin
     id 21 
     name lhand
     direction 1 -4.48959e-011 -1.55733e-027   
     length 0.859564   
     axis 9.9371e-016 90 90   XYZ
    dof rx rz
    limits (-90.0 90.0)
           (-45.0 45.0)
  end
  begin
     id 22 
     name lfingers
     direction 1 -4.48965e-011 -3.11466e-027   
     length 0.693002   
     axis 1.98742e-015 90 90   XYZ
    dof rx
    limits (0.0 90.0)
  end
  begin
     id 23
     name lthumb
     direction 0.707107 -6.34948e-011 0.707107   
     length 0.995017   
     axis -90 45 2.85299e-015   XYZ
    dof rx rz
    limits (-45.0 45.0)
           (-45.0 45.0)
  end
  begin
     id 24 
     name rclavicle
     direction -0.899388 0.348209 -0.264294   
     length 3.68366  
     axis 0 0 0   XYZ 
    dof ry rz
    limits (-10.0 20.0)
           (-20.0 0.0)
  end
  begin
     id 25 
     name rhumerus
     direction -1 -4.48965e-011 -3.01536e-027  
     length 4.90577   
     axis 180 30 90   XYZ
    dof rx ry rz
    limits (-90.0 60.0)
           (-90.0 90.0)
           (-90.0 90.0)
  end
  begin
     id 26 
     name rradius
     direction -1 -4.48966e-011 3.93291e-027   
     length 3.42692   
     axis -180 30 90   XYZ
    dof rx
    limits (-10.0 170.0)
  end
  begin
     id 27 
     name rwrist
     direction -1 -4.48969e-011 -7.78665e-028   
     length 1.71346   
     axis 1.91374e-015 -90 -90   XYZ
    dof ry
    limits (-180.0 0.0)
  end
  begin
     id 28
     name rhand
     direction -1 -4.48967e-011 -1.55733e-027   
     length 0.740957   
     axis 9.9371e-016 -90 -90   XYZ
    dof rx rz
    limits (-90.0 90.0)
           (-45.0 45.0)
  end
  begin
     id 29
     name rfingers
     direction -1 -4.48949e-011 -3.11466e-027   
     length 0.597378   
     axis 1.98742e-015 -90 -90   XYZ
    dof rx
    limits (0.0 90.0)
  end
  begin
     id 30
     name rthumb
     direction -0.707107 -6.34931e-011 0.707107   
     length 0.857719   
     axis -90 -45 -2.85299e-015   XYZ
    dof rx rz
    limits (-45.0 45.0)
           (-45.0 45.0)
  end
:hierarchy
  begin
    root lhipjoint rhipjoint lowerback
    lhipjoint lfemur
    lfemur ltibia
    ltibia lfoot
    lfoot ltoes
    rhipjoint rfemur
    rfemur rtibia
    rtibia rfoot
    rfoot rtoes
    lowerback upperback
    upperback thorax
    thorax lowerneck lclavicle rclavicle
    lowerneck upperneck
    upperneck head
    lclavicle lhumerus
    lhumerus lradius
    lradius lwrist
    lwrist lhand lthumb
    lhand lfingers
    rclavicle rhumerus
    rhumerus rradius
    rradius rwrist
    rwrist rhand rthumb
    rhand rfingers
  end

#!OML:ASF E:\I on waltz\AllaLogoMonkeySwing\Project 1\Capture day 1\Session 1\Subject1.ASF
:FULLY-SPECIFIED
:DEGREES
48
root -7.47999 16.2615 -14.0233 11.1325 35.2911 -2.49718
lowerback 23.9446 0.656366 -0.812248
upperback 3.32569 0.969024 2.12783
thorax -9.73797 0.565903 2.51313
lowerneck -18.641 -0.691841 -2.81699
upperneck -2.80071 -0.264836 1.50939
head 2.32322 -0.00707603 0.975706
rclavicle -1.88845e-014 4.8901e-014
rhumerus -56.9541 6.88579 -85.5431
rradius 77.4087
rwrist -10.0377
rhand -15.234 -28.5068
rfingers 7.12502
rthumb 10.939 -58.2019
lclavicle -1.88845e-014 4.8901e-014
lhumerus -68.5008 5.62407 85.3962
lradius 77.9586
lwrist 13.9011
lhand -22.9449 -24.9915
lfingers 7.12502
lthumb 3.49635 4.95956
rfemur -30.3115 -7.88765 19.7589
rtibia 85.4394
rfoot -15.482 -4.11743
rtoes 17.7136
lfemur -52.8252 -5.09882 -18.2815
ltibia 57.4492
lfoot -20.0337 -4.55741
ltoes -28.4342
49
root -7.19154 16.1134 -13.5383 13.706 35.0963 -0.277654
lowerback 24.0052 0.798469 -2.38388
upperback 3.00348 0.695072 1.68506
thorax -10.1281 0.492944 3.01669
lowerneck -18.4442 -0.672696 -3.17192
upperneck -4.05669 -0.145859 1.41567
head 1.85225 0.0674484 1.00744
rclavicle -4.45278e-014 2.92213e-014
rhumerus -54.8987 3.40805 -84.9655
rradius 71.5642
rwrist -11.6572
rhand -16.5151 -29.9749
rfingers 7.12502
rthumb 9.70321 -59.7314
lclavicle -4.45278e-014 2.92213e-014
lhumerus -64.434 6.13713 86.7087
lradius 74.5243
lwrist 13.4989
lhand -23.6986 -24.3568
lfingers 7.12502
lthumb 2.76846 5.60498
rfemur -39.4441 -7.65603 17.6616
rtibia 88.1315
rfoot -18.6541 -5.71453
rtoes 22.1762
lfemur -53.8352 -5.60278 -20.3152
ltibia 60.597
lfoot -22.2373 -2.88992
ltoes -28.755
50
root -6.91382 15.9251 -13.0261 15.8194 34.8698 1.28768
lowerback 23.9484 0.929164 -3.75506
upperback 2.58185 0.478637 1.49279
thorax -10.566 0.456006 3.6669
lowerneck -18.2058 -0.52941 -3.31177
upperneck -4.93407 0.0847545 1.02385
head 1.50323 0.183928 0.912644
rclavicle 5.54609e-014 1.98785e-015
rhumerus -51.5171 -0.0416513 -84.4472
rradius 64.3925
rwrist -13.7656
rhand -15.6425 -34.4175
rfingers 7.12502
rthumb 10.545 -64.133
lclavicle 5.54609e-014 1.98785e-015
lhumerus -59.5977 6.81456 88.1082
lradius 70.2419
lwrist 13.8162
lhand -24.1073 -23.7186
lfingers 7.12502
lthumb 2.37377 6.2479
rfemur -47.9033 -6.88047 16.0398
rtibia 88.6865
rfoot -21.5047 -7.31158
rtoes 23.3326
lfemur -54.5126 -5.50443 -21.9107
ltibia 63.5911
lfoot -24.5889 -1.79894
ltoes -27.3169
51
root -6.61611 15.756 -12.5058 17.4869 34.8058 2.41689
lowerback 23.8961 0.864473 -4.49374
upperback 2.10235 0.171117 1.34243
thorax -11.0555 0.360857 4.02983
lowerneck -18.1146 -0.283333 -3.10318
upperneck -5.4669 0.380519 0.399364
head 1.29712 0.319085 0.689219
rclavicle 2.78299e-015 -9.93923e-015
rhumerus -47.7599 -3.41987 -83.8845
rradius 57.1694
rwrist -16.2037
rhand -13.92 -34.4451
rfingers 7.12502
rthumb 12.2062 -64.0689
lclavicle 2.78299e-015 -9.93923e-015
lhumerus -53.3609 7.47184 89.5922
lradius 64.7075
lwrist 15.6358
lhand -24.6549 -26.7076
lfingers 7.12502
lthumb 1.84491 3.26421
rfemur -55.0621 -5.74631 14.2317
rtibia 86.7316
rfoot -22.5078 -8.16231
rtoes 19.609
lfemur -54.5594 -5.42709 -23.1441
ltibia 66.3081
lfoot -27.3171 -0.706596
ltoes -26.6654
52
root -6.29599 15.6381 -11.9746 18.6748 34.9567 3.2041
lowerback 23.8189 0.657631 -4.71627
upperback 1.65458 -0.180774 1.24168
thorax -11.4883 0.22468 4.16533
lowerneck -18.1242 -0.0162796 -2.63958
upperneck -5.89731 0.653569 -0.301877
head 1.14793 0.436325 0.398598
rclavicle -3.27995e-014 3.02153e-014
rhumerus -42.2994 -5.65601 -83.7742
rradius 48.6541
rwrist -20.8714
rhand -16.813 -30.8935
rfingers 7.12502
rthumb 9.41573 -60.6632
lclavicle -3.27995e-014 3.02153e-014
lhumerus -46.4954 6.86568 91.529
lradius 59.9071
lwrist 16.2559
lhand -25.996 -30.0781
lfingers 7.12502
lthumb 0.549598 -0.0990731
rfemur -60.3821 -4.36736 11.951
rtibia 82.6751
rfoot -22.9738 -7.2853
rtoes 17.8301
lfemur -53.7215 -5.69466 -23.9184
ltibia 68.3484
lfoot -30.2875 0.315332
ltoes -25.8252
53
root -5.9623 15.5292 -11.4278 18.9878 35.2257 3.43803
lowerback 23.8239 0.456864 -4.44245
upperback 1.35144 -0.376553 1.26956
thorax -11.8196 0.134985 4.10843
lowerneck -18.1576 0.176777 -2.27526
upperneck -6.20999 0.843759 -0.715558
head 1.04756 0.519901 0.214362
rclavicle -1.45113e-014 5.1684e-015
rhumerus -36.5303 -7.62807 -83.7006
rradius 43.16
rwrist -24.9847
rhand -17.6508 -29.4883
rfingers 7.12502
rthumb 8.60733 -59.2928
lclavicle -1.45113e-014 5.1684e-015
lhumerus -38.5168 5.94568 93.5433
lradius 55.7101
lwrist 14.8416
lhand -24.663 -29.9929
lfingers 7.12502
lthumb 1.83701 -0.0210438
rfemur -63.7488 -2.62669 9.39264
rtibia 77.4272
rfoot -20.6863 -4.75636
rtoes 13.6364
lfemur -51.8429 -6.01933 -24.1432
ltibia 69.7367
lfoot -33.2458 1.33913
ltoes -25.4845
54
root -5.61903 15.451 -10.8625 18.3089 35.4208 3.30158
lowerback 23.9808 0.346928 -4.06116
upperback 1.22976 -0.411333 1.3956
thorax -12.0439 0.110869 4.04803
lowerneck -18.0954 0.349566 -1.92854
upperneck -6.25687 1.00399 -1.00752
head 1.02272 0.586485 0.0715317
rclavicle 1.66979e-014 -1.70955e-014
rhumerus -31.4871 -8.56755 -84.4186
rradius 42.5824
rwrist -22.8107
rhand -20.7315 -33.894
rfingers 7.12502
rthumb 5.63354 -63.7991
lclavicle 1.66979e-014 -1.70955e-014
lhumerus -30.9363 5.63963 95.5434
lradius 53.2916
lwrist 11.8558
lhand -20.7267 -28.9377
lfingers 7.12502
lthumb 5.63825 0.967307
rfemur -65.2679 -0.561868 6.72063
rtibia 72.4943
rfoot -18.2033 -2.20785
rtoes 7.00468
lfemur -48.4975 -5.96747 -24.1826
ltibia 70.35
lfoot -35.9915 2.40136
ltoes -26.4507
